<?xml version="1.0" encoding="utf-8"?>
<!-- Generator: Adobe Illustrator 27.9.1, SVG Export Plug-In . SVG Version: 6.00 Build 0)  -->
<svg version="1.1" id="Capa_1" xmlns="http://www.w3.org/2000/svg" xmlns:xlink="http://www.w3.org/1999/xlink" x="0px" y="0px"
	 viewBox="0 0 467 467" style="enable-background:new 0 0 467 467;" xml:space="preserve">
<style type="text/css">
	.st0{fill:#FFFFFF;}
	.st1{fill:#8C8C8C;}
	.st2{fill:#CCCCCC;}
	.st3{opacity:0.24;}
	.st4{fill:#666666;}
	.st5{fill:#FDAB76;}
	.st6{fill:#FF9B09;}
	.st7{fill:#FFC709;}
	.st8{fill:#FDBAB9;}
	.st9{fill:#333333;}
	.st10{fill:#B3B3B3;}
	.st11{fill:#C2C2C2;}
</style>
<path class="st0" d="M385.5,83l-202.4,4.6c-5.4,0.1-10.5,2.3-14.3,6.1c-3.8,3.8-6,8.9-6.2,14.3l-8.3,293.8c-0.1,2.1,0.3,4.1,1.1,6.1
	c0.8,1.9,1.9,3.7,3.3,5.2c1.4,1.5,3.2,2.7,5.1,3.5c1.9,0.8,4,1.2,6,1.2l232-1c2,0,3.9-0.4,5.7-1.2c1.8-0.8,3.4-1.9,4.8-3.3
	s2.4-3.1,3.1-4.9s1.1-3.8,1-5.7l-6.7-295.3c-0.1-3.1-0.8-6.2-2-9.1c-1.3-2.9-3.1-5.4-5.3-7.6c-2.3-2.2-4.9-3.9-7.8-5
	C391.7,83.4,388.6,82.9,385.5,83L385.5,83z"/>
<path class="st1" d="M384.9,83.9c-27.6,4.4-122.3,18.1-201,13.9c-0.9,0-1.7,0.1-2.5,0.4s-1.5,0.7-2.2,1.3c-0.6,0.6-1.1,1.3-1.5,2
	c-0.4,0.8-0.6,1.6-0.6,2.5l-9,295.1c-0.1,1.9,0.7,3.8,2,5.3c1.3,1.4,3.2,2.3,5.1,2.3c33.1,1.2,169.4,5.7,217.8-0.5
	c1.4-0.2,2.7-0.9,3.7-2s1.4-2.5,1.4-3.9l-5.2-309.6c0-1-0.2-2-0.7-2.9c-0.4-0.9-1-1.7-1.8-2.3c-0.8-0.6-1.6-1.1-2.6-1.4
	C386.9,83.8,385.9,83.8,384.9,83.9L384.9,83.9z"/>
<path class="st2" d="M382.1,91.6C355.6,95.8,264.4,109,188.6,105c-0.8,0-1.6,0.1-2.4,0.3s-1.5,0.7-2.1,1.3s-1.1,1.2-1.4,2
	s-0.5,1.6-0.6,2.4l-8.6,284c-0.1,1.9,0.6,3.7,1.9,5.1s3,2.2,4.9,2.2c31.8,1.2,163,5.5,209.6-0.5c1.4-0.2,2.6-0.9,3.5-1.9
	s1.4-2.4,1.4-3.8l-5-298c0-1-0.2-1.9-0.6-2.8s-1-1.6-1.7-2.2s-1.6-1.1-2.5-1.3C384,91.5,383,91.5,382.1,91.6L382.1,91.6z"/>
<g>
	<path class="st0" d="M365.7,120.5l-1.4,60.9c0,1-0.4,1.9-1.1,2.6c-0.7,0.7-1.6,1.1-2.6,1.2c-11.3,0.6-46.3,2.2-66.2,1.6
		c-1.1,0-2.1-0.5-2.9-1.2c-0.8-0.8-1.2-1.8-1.3-2.9c0.6-4.4-5.7-64.7,4.6-62.6l66.5-3.8c0.6,0,1.1,0.1,1.7,0.2
		c0.5,0.2,1,0.5,1.4,0.9s0.7,0.9,0.9,1.4S365.7,120,365.7,120.5L365.7,120.5z"/>
	<path class="st0" d="M225.2,156.5c-5.6-0.3-16.2-0.3-22-0.2c-1.2,0-2.3,0.4-3.3,1.2s-1.6,1.8-1.8,3c-1,4.7-2.4,12.8-2,21.3
		c0.1,1.2,0.6,2.4,1.5,3.2s2.1,1.3,3.3,1.2l21.4-0.7c1.3,0,2.5-0.6,3.4-1.4c0.9-0.9,1.5-2.1,1.6-3.3l1.4-20.2c0-0.5,0-1-0.2-1.5
		s-0.4-0.9-0.7-1.3c-0.3-0.4-0.7-0.7-1.2-0.9C226.2,156.7,225.7,156.5,225.2,156.5z"/>
	<path class="st0" d="M199,129.6c-2.8,0-2.7-4,0-4.1l73.4-3c1.2,0,1.8,0.8,1.5,1.9l-0.5,1.5c-0.4,1.1-1.6,2-2.8,2.1L199,129.6z"/>
	<path class="st0" d="M272.8,133.8c2.2,0,1.5,2,1,3.4c-0.4,1.1-1.6,2.1-2.8,2.1l-71.7,1.6c-0.3,0-0.5,0-0.8-0.1s-0.5-0.2-0.7-0.4
		s-0.4-0.4-0.5-0.7c-0.1-0.2-0.2-0.5-0.2-0.8c0-1.1,1-2.1,2.1-2.1L272.8,133.8z"/>
	<path class="st0" d="M273,145.3c2.2,0,1.5,2,1,3.4c-0.4,1.1-1.6,2-2.8,2.1l-71.7,1.6c-0.3,0-0.5,0-0.8-0.1s-0.5-0.2-0.7-0.4
		s-0.4-0.4-0.5-0.7c-0.1-0.2-0.2-0.5-0.2-0.8c0-1.1,1-2.1,2.1-2.1L273,145.3z"/>
	<path class="st0" d="M238.6,166.5c-2.8,0-2.8-4,0-4.2l34.1-2c2-0.1,2,1.8,1.6,3.3c-0.1,0.6-0.4,1.1-0.9,1.5c-0.4,0.4-1,0.6-1.6,0.7
		L238.6,166.5z"/>
	<path class="st0" d="M273,173.6c2,0,1.9,1.8,1.5,3.3c-0.1,0.6-0.4,1.1-0.9,1.5s-1,0.6-1.6,0.6l-33.3-0.5c-1.2,0-2.1-0.9-2.1-2.1
		c0-1.1,1-2.1,2.2-2.1L273,173.6z"/>
	<path class="st0" d="M193.7,208.1c-2.8,0-2.6-4.1,0.2-4.1c0.8,1.6,174.9-8.4,172.3-3.6c-1.2,1.7-2.8,3.9-5.1,3.9L193.7,208.1z"/>
	<path class="st0" d="M365.6,210.1c2.8,0-0.2,2.9-0.8,3.8c-0.7,0.9-2.2,1.7-3.4,1.7L194,219.4c-1.2,0-2.1-0.9-2-2s1-2.1,2.2-2.1
		L365.6,210.1z"/>
	<path class="st0" d="M338,235.7c2.8-0.1,1.6,3.4,1.5,5c-0.1,0.6-0.4,1.1-0.8,1.5s-1,0.6-1.6,0.7l-38.5,0.9c-1.8,0-2.3-1.7-2.2-3.2
		c0-0.6,0.2-1.1,0.6-1.5s0.9-0.7,1.5-0.7L338,235.7z"/>
	<path class="st0" d="M252.8,237.6c2.8-0.1,1.6,3.4,1.5,5c-0.1,0.6-0.4,1.1-0.8,1.5c-0.4,0.4-1,0.6-1.6,0.7l-38.5,0.9
		c-1.8,0-2.3-1.7-2.2-3.2c0-0.6,0.2-1.1,0.6-1.5c0.4-0.4,0.9-0.7,1.5-0.7L252.8,237.6z"/>
	<path class="st0" d="M204.6,283.6c-2.8,0-2.6-4.1,0.2-4.1l166.5-5.1c1.2,0,1.6,0.7,0.9,1.7l-1.6,2.1c-0.7,0.9-2.2,1.7-3.4,1.8
		L204.6,283.6z"/>
	<path class="st0" d="M371.5,285.7c2.8,0-0.1,2.9-0.7,3.8c-0.7,0.9-2.2,1.7-3.4,1.8L204.8,295c-1.2,0-2.1-0.9-2-2
		c0-1.1,1-2.1,2.2-2.1L371.5,285.7z"/>
	<path class="st0" d="M371.8,297.2c2.8,0-0.1,2.9-0.7,3.8c-0.7,0.9-2.2,1.7-3.4,1.8l-162.6,3.7c-1.2,0-2.1-0.9-2-2
		c0-1.1,1-2.1,2.2-2.1L371.8,297.2z"/>
</g>
<path d="M314.8,143.4c0.7,17.2,26.2,16.6,26.1-0.6C340.3,125.7,314.7,126.2,314.8,143.4z"/>
<path d="M348.6,181.1L307,182c-0.6,0-1.2-0.1-1.7-0.4s-0.9-0.7-1.2-1.2c-0.3-0.5-0.4-1.1-0.4-1.7c0-0.6,0.2-1.1,0.5-1.6
	C322.7,145.7,363.3,177.1,348.6,181.1z"/>
<g class="st3">
	<path class="st4" d="M366.6,229c-4.1-0.2-11.8-0.2-16.1-0.2c-0.9,0-1.7,0.3-2.4,0.9c-0.7,0.6-1.1,1.3-1.3,2.2
		c-0.7,3.4-1.7,9.3-1.5,15.6c0,0.9,0.4,1.7,1.1,2.4c0.7,0.6,1.5,0.9,2.4,0.9l15.6-0.5c0.9,0,1.8-0.4,2.5-1.1
		c0.7-0.6,1.1-1.5,1.1-2.4l1-14.7c0-0.4,0-0.7-0.1-1.1s-0.3-0.7-0.5-0.9s-0.5-0.5-0.9-0.7C367.3,229.1,366.9,229,366.6,229
		L366.6,229z"/>
	<path class="st4" d="M281.4,230.9c-4.1-0.2-11.8-0.2-16.1-0.2c-0.9,0-1.7,0.3-2.4,0.9s-1.1,1.3-1.3,2.2c-0.7,3.4-1.7,9.3-1.5,15.6
		c0,0.9,0.4,1.7,1.1,2.4c0.7,0.6,1.5,0.9,2.4,0.9l15.6-0.5c0.9,0,1.8-0.4,2.5-1s1.1-1.5,1.1-2.4l1-14.7c0-0.4,0-0.7-0.1-1.1
		c-0.1-0.3-0.3-0.7-0.5-0.9s-0.5-0.5-0.9-0.7C282.1,231,281.7,230.9,281.4,230.9L281.4,230.9z"/>
</g>
<path class="st5" d="M291.5,63c-0.1,0-0.1,0-0.2-0.1c-0.1,0-0.1-0.1-0.2-0.1s-0.1-0.1-0.1-0.2s0-0.1,0-0.2l0.2-3.4
	c0-0.1,0-0.1,0.1-0.2c0-0.1,0.1-0.1,0.1-0.2c0.1,0,0.1-0.1,0.2-0.1s0.1,0,0.2,0s0.3,0.1,0.4,0.2s0.1,0.3,0.1,0.4l-0.2,3.4
	c0,0.1-0.1,0.3-0.2,0.4C291.7,63,291.6,63,291.5,63L291.5,63z M291.9,56.4c-0.1,0-0.1,0-0.2-0.1c-0.1,0-0.1-0.1-0.2-0.1
	c0-0.1-0.1-0.1-0.1-0.2s0-0.1,0-0.2c1.6-8.9-5.4-12-13.1-10.4c-0.7,0.2-1-0.9-0.2-1.1c8.4-1.9,16.2,2,14.5,11.5c0,0.1,0,0.1-0.1,0.2
	c0,0.1-0.1,0.1-0.1,0.2c-0.1,0-0.1,0.1-0.2,0.1C292.1,56.4,292,56.4,291.9,56.4L291.9,56.4z"/>
<path class="st6" d="M271.1,74.4l22.9-2.6l1.5-21.1c0.1-2.1-0.4-4.1-1.6-5.8S291,42,289,41.5c-4.5-1.2-10.9-1.2-18.1,4.1
	C256.7,55.8,271.1,74.4,271.1,74.4z M275.5,56.7c0-7.5,11.2-7.8,11.5-0.3C287,64,275.8,64.2,275.5,56.7z"/>
<path class="st6" d="M325.7,84.7c-0.5-5.7,2-17.2-7.1-16.9l-73,4.2c-8,0.5-5.7,11-6.3,16.2L325.7,84.7z"/>
<path class="st7" d="M298.1,72.3l3.1-0.1c0.7,0,0.7-1.1,0-1.1l-3.1,0.1C297.4,71.2,297.4,72.3,298.1,72.3L298.1,72.3z"/>
<path class="st7" d="M321.6,81.5c0.1,0,0.1,0,0.2,0s0.1-0.1,0.2-0.1c0-0.1,0.1-0.1,0.1-0.2s0-0.1,0-0.2c1-13.9-8.5-9.4-17.8-9.9
	c-0.7,0-0.7,1.1,0,1.1l11.5-0.3c1.3,0,2.6,0.5,3.5,1.4s1.5,2.1,1.5,3.4l0.1,4.3c0,0.1,0.1,0.3,0.2,0.4
	C321.3,81.4,321.5,81.5,321.6,81.5L321.6,81.5z"/>
<path class="st7" d="M348.4,80.3l-127.7,2.9c-2.2,0.1-4.4,0.9-6,2.4c-1.7,1.5-2.8,3.5-3.1,5.7c-1.1,5.1,2.8,10.1,8.1,9.9l131-3
	c6.4-0.5,5.1-7,4.7-11.5c-0.1-1.8-0.9-3.4-2.2-4.6C351.9,80.9,350.2,80.3,348.4,80.3z"/>
<path class="st7" d="M246.1,335.8l-17-41.3c-0.2-0.4-0.4-0.7-0.8-1c-0.4-0.2-0.8-0.4-1.2-0.4h-10.5c-0.4,0-0.7,0.1-1,0.3
	c-0.3,0.2-0.6,0.4-0.8,0.7c-0.2,0.3-0.3,0.6-0.3,1s0,0.7,0.2,1l19.7,43c0.2,0.4,0.6,0.8,1,1s0.9,0.3,1.4,0.2l7.8-1.7
	c0.3-0.1,0.6-0.2,0.8-0.4c0.2-0.2,0.4-0.4,0.6-0.7c0.1-0.3,0.2-0.6,0.2-0.9S246.2,336.1,246.1,335.8z"/>
<path class="st4" d="M272.3,384.5h-5v54.2h5V384.5z"/>
<path class="st4" d="M291.7,439.8h-43.9V437c0-0.1,0.1-0.3,0.2-0.4s0.2-0.2,0.4-0.2h42.8c0.1,0,0.3,0.1,0.4,0.2s0.2,0.2,0.2,0.4v2.8
	H291.7z"/>
<path d="M298.2,382.7c0,1.4-0.6,2.8-1.6,3.8s-2.4,1.6-3.8,1.6h-44.4c-5.9-0.3-5.5-5.8-5.4-10.3c0-1.4,0.6-2.8,1.6-3.8
	s2.4-1.6,3.8-1.6h44.4C298.8,372.7,298.4,378.2,298.2,382.7L298.2,382.7z"/>
<path class="st8" d="M232.8,348.4c0,0-7.5,1.2-15.8,6.8c-0.6,0.4-1.2,1-1.5,1.7s-0.4,1.5-0.4,2.3c1,7.9,5.1,33.6,18.7,58.7
	c2.1,3-1.5,12.1-1.8,15.3l-4.4,4.1H239l7.5-20.3c-3.6-0.9-7.4-2.3-7.5-6.7c-0.3-11,1.3-32.1-6.3-38.2l18-0.9L232.8,348.4z"/>
<path class="st6" d="M223.3,439.3c-1,1.3,11.1,3.1,17.2,0.2c0,0,8.5-14.7,8.5-22.3c0,0-0.7-1.5-5.6-1.2c0,0-2.8,17.4-5.8,19.4
	s-8.4,0.2-8.4,0.2S224.8,437.3,223.3,439.3L223.3,439.3z"/>
<path class="st8" d="M248.4,372.4c-0.1-0.2-19.4-2.3-19.4-2.3c4.9,16.1-27.2,50.5-31.6,57l3,9.4c-9.2,3.2-18.2,3.7-27.1,1.6l18.4-11
	c0,0,17.2-58.7,27.8-69.2l19.3-6.7L248.4,372.4z"/>
<path class="st7" d="M291.7,338.2c3.5,6.2,26.6,36.1-2.7,35.2c-11.7,0.5-42.8,0.5-42.8,0.5l-26.6-22.7c0,0,19.4-6.9,24.4-8.9
	S291.7,338.2,291.7,338.2z"/>
<path class="st6" d="M199.3,433.3c0,0,3.2,3.1,1,6.5c0,0-25.3,4.5-32.2,2.5c0,0,1.4-3.3,9.2-7C171.1,440.3,197,435,199.3,433.3
	L199.3,433.3z"/>
<path class="st9" d="M261.7,336c0,0-12.9-12.3-19.3-20.5c-1.7-2.2-2.8-4.7-3.4-7.4s-0.4-5.5,0.4-8.2c2.9-9.8,8.1-20,8.6-21.5
	c0.7-2.4,15.2-2.3,15.2-2.3s28.6,18.5,39.8,49.9l-12.6,3.9c0,0-7.5-12.5-14.8-20.5c0,0,12.8,16.8,13.2,23.7L261.7,336z"/>
<path class="st8" d="M246.2,264.9c0.2,0.5,3.9,13.1,4.2,13.3c0.3,0.3,8.3,0.7,12.1-1.9l-6.4-13.4L246.2,264.9z"/>
<path class="st8" d="M241.5,246.5c0,0-4.5,4.9-4.6,14.7c0,18.4,15.2,11.7,20.5-0.3C260.7,253.1,247.5,240.4,241.5,246.5L241.5,246.5
	z"/>
<path class="st8" d="M253.5,259c-1.1-10.2,10-6.6,2,2.7L253.5,259z"/>
<path class="st8" d="M235.3,337l9.5-9.2l13.2,5.6c0,0,13.1,2,20.6,0l7.5-2L303,326c2.5,8,6.2,10.8-3.3,15.4c-2.2,1-55-0.7-55-0.7
	L235.3,337z"/>
<path d="M251.7,258.3c0,0-1.2-13.7-11.7-9.1l-1.7,2.8c-12.5-9.6,10.2-23.2,20.1-11.1c10.2,9,6.1,27.5-1.6,21.9c0,0,0.7-4.9-1.2-6.5
	c-1.9-1.6-3.1,1.9-3.1,1.9L251.7,258.3z"/>
<path d="M258.2,242.7c-2-0.8-2.2-3.5-0.4-4.6c20-15.5,35.5,22.6,46.4,23c2.3,0,3.7,2.6,2.2,4.3c-1.1,1.3-3.1,2.5-6.3,3.2
	C275.3,273.9,269.8,247.1,258.2,242.7L258.2,242.7z"/>
<path class="st4" d="M86.7,442.7c-1.4,0-2.5-1.4-1.9-2.7l42.4-93.8c0.2-0.5,0.6-0.8,1.1-1c0.5-0.2,1-0.2,1.5,0
	c0.2,0.1,0.5,0.2,0.6,0.4c0.2,0.2,0.3,0.4,0.4,0.6c0.1,0.2,0.1,0.5,0.1,0.7c0,0.3-0.1,0.5-0.2,0.7l-42.4,93.8
	c-0.2,0.4-0.4,0.6-0.8,0.9C87.5,442.6,87.1,442.7,86.7,442.7L86.7,442.7z"/>
<path class="st4" d="M134.4,442.7c-0.4,0-0.8-0.1-1.1-0.3c-0.3-0.2-0.6-0.5-0.8-0.9l-42.4-93.8c-0.1-0.2-0.2-0.5-0.2-0.7
	s0-0.5,0.1-0.7s0.2-0.5,0.4-0.6c0.2-0.2,0.4-0.3,0.6-0.4c0.5-0.2,1-0.2,1.5,0s0.9,0.6,1.1,1l42.4,93.8
	C136.9,441.3,135.8,442.8,134.4,442.7L134.4,442.7z"/>
<path class="st4" d="M261,442.7c-1.4,0-2.5-1.4-1.9-2.7l42.4-93.8c0.2-0.5,0.6-0.8,1.1-1s1-0.2,1.5,0c0.2,0.1,0.5,0.2,0.6,0.4
	c0.2,0.2,0.3,0.4,0.4,0.6s0.1,0.5,0.1,0.7c0,0.3-0.1,0.5-0.2,0.7l-42.4,93.8c-0.2,0.4-0.4,0.6-0.8,0.9
	C261.8,442.6,261.4,442.7,261,442.7L261,442.7z"/>
<path class="st4" d="M308.8,442.7c-0.4,0-0.8-0.1-1.1-0.3c-0.3-0.2-0.6-0.5-0.8-0.9l-42.4-93.8c-0.1-0.2-0.2-0.5-0.2-0.7
	c0-0.3,0-0.5,0.1-0.7s0.2-0.5,0.4-0.6c0.2-0.2,0.4-0.3,0.6-0.4c0.5-0.2,1-0.2,1.5,0s0.9,0.6,1.1,1l42.4,93.8
	C311.2,441.3,310.1,442.8,308.8,442.7z"/>
<path class="st9" d="M322.3,343.3c0.3-1.4-1-2.6-2.4-2.5H74c-1.8-0.1-3.5,1.8-2.5,3.5c1.5,2.2,2.5,7.2,6.1,7h240.8
	c1.4,0,2.5-0.8,2.8-2L322.3,343.3z"/>
<path class="st4" d="M43.2,376c-1.5,2.2-7.4,52-8.3,70.4c-0.1,0.6,0.1,1.1,0.5,1.6c0.4,0.4,0.9,0.7,1.5,0.8s1.1-0.1,1.6-0.5
	c0.4-0.4,0.7-0.9,0.8-1.5L50,377.6L43.2,376z"/>
<path class="st4" d="M90.7,376c1.5,2.2,7.4,52,8.3,70.4c0,0.3,0,0.6-0.1,0.9s-0.3,0.5-0.5,0.7s-0.4,0.4-0.7,0.5
	c-0.3,0.1-0.6,0.2-0.9,0.2c-1.4,0.2-2.3-1.8-2.2-1.9c-0.2-1.4-10.8-69.2-10.8-69.2L90.7,376z"/>
<path class="st10" d="M34.3,372.1c-0.3,4.1,3.1,7.7,7.5,7.7l49.9,0.9c4.2,0.1,7.6-2.9,7.8-6.8c0.5-4.2-3-7.9-7.5-8L42,365
	C37.8,365,34.3,368.2,34.3,372.1z"/>
<path class="st6" d="M118.8,438.4c-7.9,0-11.4-0.7-13-1.3c0.2,0.7,0.5,1.3,1.1,1.7s1.2,0.7,1.9,0.7h28.1c0.2,0,0.4,0,0.6-0.1
	s0.4-0.2,0.5-0.4c0.1-0.2,0.2-0.4,0.3-0.6c0-0.2,0-0.4,0-0.6C134.9,438,128.1,438.4,118.8,438.4L118.8,438.4z"/>
<path class="st7" d="M138.1,437.7c-6.7-11.6-20.8-5.5-30.7-7.4c-0.2,1.1-2.1,5.6-1.6,6.8C109.5,439.3,135.5,438.1,138.1,437.7z"/>
<path class="st8" d="M109.4,424.7l-1.9,6.5c0,0,4.3,1.9,8,0.4l0.7-5.7L109.4,424.7z"/>
<path class="st6" d="M166.7,432.6c-6.2,5-8.5,8.3-10.1,8.9c0.5,0.4,1.2,0.6,1.9,0.6s1.3-0.2,1.9-0.7l21.9-17.6
	c0.2-0.1,0.3-0.3,0.4-0.5c0.1-0.2,0.1-0.4,0.1-0.6s-0.1-0.4-0.2-0.6c-0.1-0.2-0.2-0.3-0.4-0.5C179.8,423.8,173.9,426.7,166.7,432.6
	L166.7,432.6z"/>
<path class="st7" d="M182.1,421.7c-12.4-4.8-19.7,8.8-28.5,13.5c0.5,1,1.9,5.7,2.9,6.2C160.8,440.8,180.3,423.6,182.1,421.7
	L182.1,421.7z"/>
<path class="st7" d="M68.2,350.1c78.8,6.4,63.9,5.2,49.3,77.3c0,0-2.7,1.3-8.6-0.6c0,0,6.1-47.4,1.6-57.7l-51.4-8.4L68.2,350.1z"/>
<path class="st8" d="M148.9,426.1c0.4,0.4,4.7,9,4.7,9s4.8-1,5.7-4l-4.3-7.8L148.9,426.1z"/>
<path class="st7" d="M39.6,349.7c-3.5,7.6-1.1,20.8,10.9,21.4l56.1,2.6c0.6,0,1.1,0.2,1.6,0.6c0.4,0.4,0.8,0.9,0.9,1.4
	c1.3,5.1,7.8,20.8,39.3,52c2.1,2.3,5.7-1.6,7.6-2.5c0.2-0.1,0.4-0.4,0.5-0.6c0.1-0.3,0-0.5-0.1-0.8L123.7,368
	c-1.7-2.8-4.5-4.9-7.7-5.7l-47.8-12.2L39.6,349.7z"/>
<path class="st4" d="M39.4,349.6c0,0-0.6-27.8,5-54c2.2-10.8,8.8-20.1,17.8-26.5l13,5.3c20,26.1,1.3,51.7-3.3,75.6
	C72,350,50.4,352.8,39.4,349.6L39.4,349.6z"/>
<path class="st8" d="M71.1,248.4L61,271.9c0,0,3.3,7.3,14.6,4.5l4.1-16.3L71.1,248.4z"/>
<path class="st8" d="M91.3,237.6c0.1,0.3,0.4,23.6,0.4,23.6L78.4,261l-3.5-22C74.9,239.1,89.2,232.1,91.3,237.6L91.3,237.6z"/>
<path d="M78.8,243.3l1,11.7c0.3,1.2,1.5,4.2,4.6,2.7c2.6-1.4,5-2.6,6.9-2.5c0.4,0,0.8,0.2,1.1,0.5c0.3,0.3,0.4,0.7,0.4,1.1
	c0,2.1,0,6.9-0.7,11c-0.1,0.4-0.3,0.8-0.6,1c-0.3,0.3-0.7,0.4-1.1,0.3c-1-0.3-12.4-0.6-13.2-3.4c-0.5-2.9-2.1-11.7-2.9-14.1
	c-1.2-3.2-4.9-2.5-6.3-3.9c-3.8-6.2,3.6-5.7,2.1-9c-1-1.6-1.8-4.1,1.1-6.3c5-3.6,7.2,1.9,9.5,0c0.3-0.3,0.8-0.5,1.5-0.3
	c0.2,0.1,0.4,0.1,0.7,0.1c0.2,0,0.4-0.1,0.6-0.2c0.2-0.1,0.4-0.3,0.5-0.4c0.1-0.2,0.2-0.4,0.3-0.6c2.8-8.2,13.9-3,12.1,5.9
	c-0.7,4-7.1,3.9-10.5,2.7C83.1,238.7,78.8,241.3,78.8,243.3z"/>
<path class="st8" d="M74.6,255.9c0,0,0.9-7-1.8-8.1C63.5,245.7,69.7,260,74.6,255.9z"/>
<path class="st4" d="M102.5,327.2c-33.5,10.5-31.7-36.6-31.9-37C57.2,270,49.8,297,51.1,300.8c11.8,42.6,41.5,40.5,53,32.2
	C102.7,330.8,102.3,328.8,102.5,327.2L102.5,327.2z"/>
<path class="st11" d="M76.8,320c-3.9-3-9.4-26.3-6.5-28c0.2,0,0.4,0.1,0.6,0.2c0.2,0.2,0.3,0.4,0.3,0.6c0.2,6.2,1.4,17.9,6.5,25.9
	C78.2,319.3,77.5,320.2,76.8,320z"/>
<path class="st11" d="M67.4,330.7c-8-6.3-13.6-16.6-17.4-30.1c0-0.1,0-0.2,0-0.3s0-0.2,0.1-0.3s0.1-0.2,0.2-0.3
	c0.1-0.1,0.2-0.1,0.3-0.2s0.2,0,0.3,0s0.2,0.1,0.3,0.1c0.1,0.1,0.2,0.1,0.3,0.2s0.1,0.2,0.1,0.3c3.6,13.1,9.2,22.9,16.6,29.1
	C68.9,329.8,68.3,331,67.4,330.7z"/>
<path class="st8" d="M121.9,317.1c0.9-0.2-14.5,12.3-9.3,4.5c3-4.2,1.5-6.3-1.9-1.8c-5.4,6.4-4.6,5.8-8.5,7.2
	c-0.1,1.5,0.2,3.5,1.7,5.8C114.4,329.3,118.5,330.1,121.9,317.1L121.9,317.1z"/>
<path class="st7" d="M198,295.4c-144.9-68,6.8-133,25.3-59.6C226,268.7,162.2,261,198,295.4z"/>
<path class="st6" d="M147.4,230.6h37.9c0.2,0,0.4-0.1,0.6-0.3c0.2-0.2,0.3-0.4,0.3-0.6s-0.1-0.4-0.3-0.6c-0.2-0.2-0.4-0.3-0.6-0.3
	h-37.9C146.3,228.8,146.3,230.6,147.4,230.6L147.4,230.6z"/>
<path class="st6" d="M196.6,230.6h11.3c0.2,0,0.4-0.1,0.6-0.3c0.2-0.2,0.3-0.4,0.3-0.6s-0.1-0.4-0.3-0.6c-0.2-0.2-0.4-0.3-0.6-0.3
	h-11.3C195.5,228.8,195.5,230.6,196.6,230.6L196.6,230.6z"/>
<path class="st6" d="M146.2,238.3h14.2c0.1,0,0.2,0,0.3-0.1c0.1,0,0.2-0.1,0.3-0.2c0.1-0.1,0.2-0.2,0.2-0.3s0.1-0.2,0.1-0.3
	s0-0.2-0.1-0.3c0-0.1-0.1-0.2-0.2-0.3c-0.1-0.1-0.2-0.1-0.3-0.2c-0.1,0-0.2-0.1-0.3-0.1h-14.2C145,236.5,145,238.3,146.2,238.3
	L146.2,238.3z"/>
<path class="st6" d="M181.3,238.3h25.3c0.1,0,0.2,0,0.3-0.1c0.1,0,0.2-0.1,0.3-0.2c0.1-0.1,0.2-0.2,0.2-0.3s0.1-0.2,0.1-0.3
	s0-0.2-0.1-0.3c0-0.1-0.1-0.2-0.2-0.3c-0.1-0.1-0.2-0.1-0.3-0.2c-0.1,0-0.2-0.1-0.3-0.1h-25.3C180.2,236.5,180.2,238.3,181.3,238.3
	L181.3,238.3z"/>
<path class="st6" d="M144.9,245.9h37.9c0.2,0,0.4-0.1,0.6-0.3c0.2-0.2,0.3-0.4,0.3-0.6s-0.1-0.4-0.3-0.6c-0.2-0.2-0.4-0.3-0.6-0.3
	h-37.9C143.8,244.2,143.7,246,144.9,245.9L144.9,245.9z"/>
<path class="st6" d="M192.2,245.9h13.1c0.2,0,0.4-0.1,0.6-0.3c0.2-0.2,0.3-0.4,0.3-0.6s-0.1-0.4-0.3-0.6c-0.2-0.2-0.4-0.3-0.6-0.3
	h-13.1C191.1,244.2,191.1,246,192.2,245.9L192.2,245.9z"/>
</svg>
